<svg width="359" height="324" viewBox="0 0 359 324" fill="none" xmlns="http://www.w3.org/2000/svg">
<g id="Group 5691">
<path id="Vector 8" d="M113.662 121.622C60.0308 112.88 138.489 132.643 170.825 154.865C179.352 160.725 176.643 163.96 167.078 160.015C133.776 146.28 59.7591 119.463 61.4686 139.107C64.2552 171.13 -15.8589 195.85 38.5148 231.094C64.5702 247.983 83.4315 242.764 95.7197 231.513C102.119 225.654 117.038 227.09 119.114 235.515C119.602 237.494 119.309 239.564 118.664 241.498C109.067 270.306 153.468 325.672 185.81 300.624C219.28 274.7 242.771 309.464 310.507 277.353C378.242 245.242 316.858 221.274 302.812 213.039C288.765 204.804 366.225 171.008 329.997 147.683C293.768 124.359 323.931 79.5212 336.076 58.7587C348.22 37.9961 309.714 -4.36554 280.095 23.1847C250.476 50.735 193.058 134.563 113.662 121.622Z" fill="#DEF1DE"/>
<g id="Group 5690">
<g id="Group 5686">
<rect id="Rectangle 610" x="160.09" width="152.353" height="195.566" rx="10.0937" transform="rotate(8.74151 160.09 0)" fill="#F8F8F8"/>
<g id="Group 5684">
<rect id="Rectangle 597" x="159.234" y="96.8857" width="42.8984" height="3.78516" rx="1.89258" transform="rotate(8.74151 159.234 96.8857)" fill="#E4E4E4"/>
<rect id="Rectangle 602" x="154.92" y="124.944" width="42.8984" height="3.78516" rx="1.89258" transform="rotate(8.74151 154.92 124.944)" fill="#E4E4E4"/>
<rect id="Rectangle 598" x="205.375" y="103.98" width="73.8105" height="3.78516" rx="1.89258" transform="rotate(8.74151 205.375 103.98)" fill="#E4E4E4"/>
<rect id="Rectangle 603" x="201.061" y="132.039" width="21.1338" height="3.78516" rx="1.89258" transform="rotate(8.74151 201.061 132.039)" fill="#E4E4E4"/>
<rect id="Rectangle 599" x="172.041" y="113.216" width="23.9727" height="3.78516" rx="1.89258" transform="rotate(8.74151 172.041 113.216)" fill="#E4E4E4"/>
<rect id="Rectangle 601" x="157.077" y="110.915" width="10.4092" height="3.78516" rx="1.89258" transform="rotate(8.74151 157.077 110.915)" fill="#E4E4E4"/>
<rect id="Rectangle 600" x="200.412" y="117.579" width="48.2607" height="3.78516" rx="1.89258" transform="rotate(8.74151 200.412 117.579)" fill="#E4E4E4"/>
</g>
<g id="Group 5685">
<rect id="Rectangle 590" x="169.732" y="28.6094" width="105.353" height="3.78516" rx="1.89258" transform="rotate(8.74151 169.732 28.6094)" fill="#E4E4E4"/>
<rect id="Rectangle 591" x="167.575" y="42.6387" width="50.7842" height="3.78516" rx="1.89258" transform="rotate(8.74151 167.575 42.6387)" fill="#E4E4E4"/>
<rect id="Rectangle 595" x="163.261" y="70.6973" width="50.7842" height="3.78516" rx="1.89258" transform="rotate(8.74151 163.261 70.6973)" fill="#E4E4E4"/>
<rect id="Rectangle 593" x="165.418" y="56.668" width="23.9727" height="3.78516" rx="1.89258" transform="rotate(8.74151 165.418 56.668)" fill="#E4E4E4"/>
<rect id="Rectangle 594" x="193.788" y="61.0303" width="48.2607" height="3.78516" rx="1.89258" transform="rotate(8.74151 193.788 61.0303)" fill="#E4E4E4"/>
<rect id="Rectangle 592" x="221.51" y="50.9316" width="70.0254" height="3.78516" rx="1.89258" transform="rotate(8.74151 221.51 50.9316)" fill="#E4E4E4"/>
<rect id="Rectangle 596" x="217.196" y="78.9912" width="35.0127" height="3.78516" rx="1.89258" transform="rotate(8.74151 217.196 78.9912)" fill="#E4E4E4"/>
</g>
</g>
<g id="Group 5683">
<path id="Union" d="M254.784 26.2807C254.752 21.8971 251.172 18.3697 246.788 18.4022L120.719 19.3358C116.335 19.3682 112.808 22.9482 112.84 27.3318L114.319 227.087C114.352 231.471 117.932 234.998 122.315 234.966L283.707 233.771C288.091 233.738 291.618 230.158 291.586 225.775L291.168 169.355C291.096 159.6 283.13 151.752 273.376 151.824C263.622 151.896 255.656 144.048 255.584 134.294L254.784 26.2807Z" fill="#4EB34F"/>
<g id="Group 5682">
<rect id="Rectangle 611" x="139.522" y="52.3174" width="90.2129" height="50.4687" rx="6.62402" transform="rotate(-0.424268 139.522 52.3174)" fill="white"/>
<g id="Group 5679">
<rect id="Rectangle 597_2" x="155.737" y="68.1006" width="24.6389" height="2.17402" rx="1.08701" transform="rotate(-0.424268 155.737 68.1006)" fill="#E4E3E3"/>
<rect id="Rectangle 602_2" x="155.858" y="84.4053" width="24.6389" height="2.17402" rx="1.08701" transform="rotate(-0.424268 155.858 84.4053)" fill="#E4E3E3"/>
<rect id="Rectangle 598_2" x="182.549" y="67.9023" width="31.1335" height="2.17402" rx="1.08701" transform="rotate(-0.424268 182.549 67.9023)" fill="#E4E3E3"/>
<rect id="Rectangle 603_2" x="182.67" y="84.207" width="24.4716" height="2.17402" rx="1.08701" transform="rotate(-0.424268 182.67 84.207)" fill="#E4E3E3"/>
<rect id="Rectangle 599_2" x="164.493" y="76.1885" width="13.7688" height="2.17402" rx="1.08701" transform="rotate(-0.424268 164.493 76.1885)" fill="#E4E3E3"/>
<rect id="Rectangle 601_2" x="155.797" y="76.2529" width="5.97857" height="2.17402" rx="1.08701" transform="rotate(-0.424268 155.797 76.2529)" fill="#E4E3E3"/>
<rect id="Rectangle 600_2" x="180.979" y="76.0664" width="19.217" height="2.17402" rx="1.08701" transform="rotate(-0.424268 180.979 76.0664)" fill="#E4E3E3"/>
</g>
</g>
</g>
<path id="Vector" d="M58.659 83.5224L56.3182 86.3317C55.0255 87.8832 55.244 90.1785 56.8062 91.4583C58.3684 92.7381 60.6829 92.5178 61.9756 90.9663L64.9015 87.4546C67.4871 84.3516 67.0501 79.761 63.9256 77.2015C60.8012 74.6419 56.1723 75.0824 53.5868 78.1855L50.6609 81.6971C48.3985 84.4123 48.7809 88.429 51.5148 90.6687" stroke="#326246" strokeWidth="2.05029" strokeLinecap="round"/>
<rect id="Rectangle 589" x="34.7927" y="81.3174" width="152.353" height="195.566" rx="10.0937" transform="rotate(-5.43706 34.7927 81.3174)" fill="#F8F8F8"/>
<g id="Group 5677">
<rect id="Rectangle 597_3" x="57.6952" y="175.461" width="42.8984" height="3.78516" rx="1.89258" transform="rotate(-5.43706 57.6952 175.461)" fill="#E4E4E4"/>
<rect id="Rectangle 602_3" x="60.3849" y="203.722" width="42.8984" height="3.78516" rx="1.89258" transform="rotate(-5.43706 60.3849 203.722)" fill="#E4E4E4"/>
<rect id="Rectangle 598_3" x="104.169" y="171.037" width="73.8105" height="3.78516" rx="1.89258" transform="rotate(-5.43706 104.169 171.037)" fill="#E4E4E4"/>
<rect id="Rectangle 603_3" x="106.858" y="199.299" width="21.1338" height="3.78516" rx="1.89258" transform="rotate(-5.43706 106.858 199.299)" fill="#E4E4E4"/>
<rect id="Rectangle 599_3" x="74.1122" y="188.157" width="23.9727" height="3.78516" rx="1.89258" transform="rotate(-5.43706 74.1122 188.157)" fill="#E4E4E4"/>
<rect id="Rectangle 601_3" x="59.0397" y="189.592" width="10.4092" height="3.78516" rx="1.89258" transform="rotate(-5.43706 59.0397 189.592)" fill="#E4E4E4"/>
<rect id="Rectangle 600_3" x="102.687" y="185.438" width="48.2607" height="3.78516" rx="1.89258" transform="rotate(-5.43706 102.687 185.438)" fill="#E4E4E4"/>
</g>
<g id="Group 5676">
<rect id="Rectangle 607" x="64.2403" y="244.229" width="23.9727" height="3.78516" rx="1.89258" transform="rotate(-5.43706 64.2403 244.229)" fill="#E4E4E4"/>
<rect id="Rectangle 604" x="77.9678" y="228.665" width="23.9727" height="3.78516" rx="1.89258" transform="rotate(-5.43706 77.9678 228.665)" fill="#E4E4E4"/>
<rect id="Rectangle 605" x="62.8954" y="230.1" width="10.4092" height="3.78516" rx="1.89258" transform="rotate(-5.43706 62.8954 230.1)" fill="#E4E4E4"/>
<rect id="Rectangle 608" x="92.8153" y="241.511" width="48.2607" height="3.78516" rx="1.89258" transform="rotate(-5.43706 92.8153 241.511)" fill="#E4E4E4"/>
<rect id="Rectangle 606" x="106.543" y="225.945" width="48.2607" height="3.78516" rx="1.89258" transform="rotate(-5.43706 106.543 225.945)" fill="#E4E4E4"/>
</g>
<g id="Group 5678">
<rect id="Rectangle 590_2" x="51.1497" y="106.692" width="105.353" height="3.78516" rx="1.89258" transform="rotate(-5.43706 51.1497 106.692)" fill="#E4E4E4"/>
<rect id="Rectangle 591_2" x="52.4946" y="120.823" width="50.7842" height="3.78516" rx="1.89258" transform="rotate(-5.43706 52.4946 120.823)" fill="#E4E4E4"/>
<rect id="Rectangle 595_2" x="55.1846" y="149.084" width="50.7842" height="3.78516" rx="1.89258" transform="rotate(-5.43706 55.1846 149.084)" fill="#E4E4E4"/>
<rect id="Rectangle 593_2" x="53.8396" y="134.953" width="23.9727" height="3.78516" rx="1.89258" transform="rotate(-5.43706 53.8396 134.953)" fill="#E4E4E4"/>
<rect id="Rectangle 594_2" x="82.4146" y="132.233" width="48.2607" height="3.78516" rx="1.89258" transform="rotate(-5.43706 82.4146 132.233)" fill="#E4E4E4"/>
<rect id="Rectangle 592_2" x="106.818" y="115.652" width="70.0254" height="3.78516" rx="1.89258" transform="rotate(-5.43706 106.818 115.652)" fill="#E4E4E4"/>
<rect id="Rectangle 596_2" x="109.508" y="143.913" width="35.0127" height="3.78516" rx="1.89258" transform="rotate(-5.43706 109.508 143.913)" fill="#E4E4E4"/>
</g>
<rect id="Rectangle 609" x="23.24" y="89.7725" width="76.0942" height="75.8116" rx="8.83203" transform="rotate(-11.4371 23.24 89.7725)" fill="#4EB34F"/>
<path id="Intersect" fill-rule="evenodd" clip-rule="evenodd" d="M66.2879 78.319C68.2054 81.279 68.0733 85.2498 65.6898 88.1105L62.7638 91.6221C61.1108 93.6061 58.1548 93.8874 56.1572 92.251C54.1544 90.6103 53.874 87.6642 55.5313 85.6751L57.872 82.8658C58.2344 82.4308 58.8809 82.372 59.3158 82.7344C59.7508 83.0969 59.8096 83.7433 59.4472 84.1783L57.1065 86.9876C56.1783 88.1016 56.3348 89.746 57.4565 90.6649C58.5833 91.588 60.2562 91.4288 61.1887 90.3097L64.1146 86.798C66.1593 84.344 66.0037 80.8101 63.8718 78.5489L66.2879 78.319Z" fill="#326246"/>
<g id="Group 5681">
<g id="Group 5679_2">
<rect id="Rectangle 597_4" x="41.9952" y="129.112" width="23.3066" height="2.05646" rx="1.02823" transform="rotate(-11.4371 41.9952 129.112)" fill="#EDEAEA"/>
<rect id="Rectangle 602_4" x="45.053" y="144.229" width="23.3066" height="2.05646" rx="1.02823" transform="rotate(-11.4371 45.053 144.229)" fill="#EDEAEA"/>
<rect id="Rectangle 598_4" x="66.8543" y="124.083" width="29.45" height="2.05646" rx="1.02823" transform="rotate(-11.4371 66.8543 124.083)" fill="#EDEAEA"/>
<rect id="Rectangle 603_4" x="69.9125" y="139.2" width="23.1483" height="2.05646" rx="1.02823" transform="rotate(-11.4371 69.9125 139.2)" fill="#EDEAEA"/>
<rect id="Rectangle 599_4" x="51.5864" y="135.04" width="13.0243" height="2.05646" rx="1.02823" transform="rotate(-11.4371 51.5864 135.04)" fill="#EDEAEA"/>
<rect id="Rectangle 601_4" x="43.5241" y="136.671" width="5.65528" height="2.05646" rx="1.02823" transform="rotate(-11.4371 43.5241 136.671)" fill="#EDEAEA"/>
<rect id="Rectangle 600_4" x="66.8714" y="131.947" width="18.1779" height="2.05646" rx="1.02823" transform="rotate(-11.4371 66.8714 131.947)" fill="#EDEAEA"/>
</g>
<g id="Group 5680">
<rect id="Rectangle 607_2" x="39.1477" y="114.716" width="13.0243" height="2.05646" rx="1.02823" transform="rotate(-11.4371 39.1477 114.716)" fill="#EDEAEA"/>
<rect id="Rectangle 604_2" x="45.6811" y="105.526" width="13.0243" height="2.05646" rx="1.02823" transform="rotate(-11.4371 45.6811 105.526)" fill="#EDEAEA"/>
<rect id="Rectangle 605_2" x="37.6189" y="107.157" width="5.65528" height="2.05646" rx="1.02823" transform="rotate(-11.4371 37.6189 107.157)" fill="#EDEAEA"/>
<rect id="Rectangle 608_2" x="54.433" y="111.624" width="26.2199" height="2.05646" rx="1.02823" transform="rotate(-11.4371 54.433 111.624)" fill="#EDEAEA"/>
<rect id="Rectangle 606_2" x="60.9664" y="102.434" width="6.67666" height="2.05646" rx="1.02823" transform="rotate(-11.4371 60.9664 102.434)" fill="#EDEAEA"/>
</g>
</g>
<g id="Group 5689">
<rect id="Rectangle 612" x="220.588" y="165.18" width="105.921" height="66.7449" rx="8.70586" transform="rotate(6.49457 220.588 165.18)" fill="#F8F8F8"/>
<rect id="Rectangle 613" x="227.172" y="174.691" width="29.3823" height="27.9313" rx="5.80391" transform="rotate(6.49457 227.172 174.691)" fill="#E4E4E4"/>
<rect id="Rectangle 618" x="222.741" y="213.616" width="29.3823" height="10.5196" rx="5.25979" transform="rotate(6.49457 222.741 213.616)" fill="#E4E4E4"/>
<g id="Group 5688">
<rect id="Rectangle 619" x="287.967" y="224.327" width="24.6666" height="1.08823" rx="0.544116" transform="rotate(6.49457 287.967 224.327)" fill="#E4E4E4"/>
<rect id="Rectangle 620" x="298.648" y="229.924" width="13.4215" height="1.81372" rx="0.90686" transform="rotate(6.49457 298.648 229.924)" fill="#E4E4E4"/>
</g>
<g id="Group 5687">
<rect id="Rectangle 598_5" x="261.526" y="180.793" width="50.4214" height="4.35293" rx="2.17646" transform="rotate(6.49457 261.526 180.793)" fill="#E4E4E4"/>
<rect id="Rectangle 614" x="260.5" y="189.804" width="31.9215" height="2.90195" rx="1.45098" transform="rotate(6.49457 260.5 189.804)" fill="#E4E4E4"/>
<rect id="Rectangle 615" x="259.023" y="202.778" width="10.5196" height="1.81372" rx="0.90686" transform="rotate(6.49457 259.023 202.778)" fill="#E4E4E4"/>
<rect id="Rectangle 616" x="274.881" y="204.584" width="10.5196" height="1.81372" rx="0.90686" transform="rotate(6.49457 274.881 204.584)" fill="#E4E4E4"/>
<rect id="Rectangle 617" x="290.739" y="206.389" width="10.5196" height="1.81372" rx="0.90686" transform="rotate(6.49457 290.739 206.389)" fill="#E4E4E4"/>
</g>
</g>
</g>
</g>
</svg>
