<svg width="19" height="21" viewBox="0 0 19 21" fill="none" xmlns="http://www.w3.org/2000/svg">
<path d="M7.33837 1.32899C5.08865 2.04395 3.33234 3.83786 2.7114 6.08464L2.66118 6.26634C2.25872 7.72259 2.18477 9.24798 2.44453 10.7354L2.46974 10.8797C2.4922 11.0084 2.42476 11.1363 2.30833 11.1986C1.52905 11.6153 1 12.4285 1 13.3633C1 14.5343 1.83738 15.5432 3.00241 15.7759L3.41418 15.8581C7.3654 16.6473 11.4372 16.6473 15.3884 15.8581L15.8002 15.7759C16.9652 15.5432 17.8026 14.5343 17.8026 13.3633C17.8026 12.4379 17.2842 11.6317 16.5178 11.2113C16.3879 11.14 16.3125 10.9964 16.3377 10.8521L16.3644 10.699C16.6201 9.23489 16.5535 7.73381 16.1691 6.29731L16.0992 6.03605C15.5062 3.8204 13.8146 2.05125 11.6048 1.33574C10.2246 0.888853 8.72104 0.88958 7.33837 1.32899Z" stroke="#474646" strokeWidth="2"/>
<path d="M6.05098 16.2659C8.27756 16.5113 10.525 16.5113 12.7516 16.2659C12.7359 16.4783 12.7019 16.6891 12.65 16.8961L12.5581 17.2622C12.2705 18.4092 11.3566 19.3018 10.1898 19.5755C9.67137 19.697 9.13123 19.697 8.61283 19.5755C7.44605 19.3018 6.53212 18.4092 6.24445 17.2622L6.15263 16.8961C6.10071 16.6891 6.06673 16.4783 6.05098 16.2659Z" stroke="#474646" strokeWidth="2"/>
</svg>
